<svg xmlns="http://www.w3.org/2000/svg" fill="#61DAFB" xmlns:xlink="http://www.w3.org/1999/xlink" version="1.1" x="0px" y="0px" viewBox="0 0 100 125" enable-background="new 0 0 100 100" xml:space="preserve"><path d="M95,38c0,21.3-17.3,38.6-38.6,38.6c-10,0-19.5-3.8-26.7-10.7l-0.4-0.4l17.1-16.3l0.4,0.3c2.9,2.7,6.6,4.1,10.5,4.1  c8.6,0,15.6-7,15.6-15.6c0-3.2-1-6.3-2.8-8.9l-0.3-0.4l17.4-13.9l0.3,0.4C92.4,21.9,95,29.8,95,38z"/><path d="M27.8,92.8c-11.3,0-20.6-7.4-22.4-18C3.9,66.6,7.4,55,22.1,49.6C43.8,41.7,56,36,56.1,35.9c0.5-0.2,1-0.3,1.5-0.3  c1.3,0,2.5,0.8,3.1,2c0.4,0.8,0.4,1.8,0.1,2.6c-0.3,0.9-0.9,1.6-1.8,1.9c-0.5,0.2-12.5,5.9-34.6,13.9c-7,2.6-14,8.5-12.4,17.5  c1.5,8.4,9.2,12.3,15.7,12.3h57.1c1.9,0,3.4,1.5,3.4,3.4c0,1.9-1.5,3.4-3.4,3.4H27.8z"/><path d="M17.3,38c0-0.5,0.4-0.8,0.8-0.8l26.7,0c0-0.2,0-0.4,0.1-0.6l-26.2-5.2c-0.4-0.1-0.7-0.5-0.6-1c0.1-0.4,0.5-0.7,1-0.6  l26.2,5.2c1.4-5.4,6.3-9.5,12.2-9.5c2.3,0,4.4,0.6,6.2,1.7L78.6,7c0.3-0.4,0.8-0.4,1.2-0.2c0.4,0.3,0.4,0.8,0.2,1.2L64.9,28  c0.2,0.2,0.5,0.4,0.7,0.6l18.6-16.8c0.3-0.3,0.9-0.3,1.2,0.1c0.3,0.3,0.3,0.9-0.1,1.2L66.8,29.8c1.9,2.2,3.1,5.1,3.1,8.2  c0,6.9-5.6,12.6-12.6,12.6c-2.9,0-5.5-1-7.6-2.6c6.4-2.7,9.8-4.3,10.1-4.4c2.5-1.2,3.6-4.2,2.4-6.7c-0.8-1.8-2.6-2.9-4.6-2.9  c-0.7,0-1.5,0.2-2.1,0.5c-0.1,0-3.8,1.8-10.6,4.6c0-0.1,0-0.2,0-0.2l-26.7,0C17.6,38.9,17.3,38.5,17.3,38z"/><text x="0" y="115" fill="#000000" font-size="5px" font-weight="bold" font-family="'Helvetica Neue', Helvetica, Arial-Unicode, Arial, Sans-serif">Created by Marie-Pierre Bauduin</text><text x="0" y="120" fill="#000000" font-size="5px" font-weight="bold" font-family="'Helvetica Neue', Helvetica, Arial-Unicode, Arial, Sans-serif">from the Noun Project</text></svg>